<?xml version="1.0" encoding="UTF-8"?><svg id="a" xmlns="http://www.w3.org/2000/svg" viewBox="0 0 24 24"><path d="M12.15,1c5.53.54,10.09,5.19,10.75,10.68-4.12,0-8.24-.15-12.36-.04-3.52,1.18-1.1,6.02,1.98,3.94l1.72,1.71c-1.69,1.64-4.42,1.65-6.21.17-2.52-2.09-2.14-6.08.68-7.71,1.6-.92,3.41-.56,5.16-.55,1.94.02,3.88-.02,5.81,0-1-2.23-2.81-4.03-5.04-5.04v3.16c-.38-.18-.73-.42-1.12-.59-5.45-2.41-11.14,2.44-9.82,8.21,1.25,5.47,7.84,7.14,11.85,3.47.42.54,1.28,1.11,1.65,1.64.04.06.09.07.07.17-.5.35-.95.77-1.48,1.1C7.82,26.28-1.78,18.18,1.75,9.58,3.45,5.46,7.74,3.11,12.15,3.75V1Z"/></svg>